<svg xmlns="http://www.w3.org/2000/svg" xmlns:xlink="http://www.w3.org/1999/xlink" width="794" zoomAndPan="magnify" viewBox="0 0 594.95996 842.24997" height="1123" preserveAspectRatio="xMidYMid meet" version="1.0"><defs><clipPath id="id1"><path d="M 8.035156 276.011719 L 176 276.011719 L 176 443 L 8.035156 443 Z M 8.035156 276.011719 " clip-rule="nonzero"/></clipPath><clipPath id="id2"><path d="M 213 276.011719 L 380 276.011719 L 380 443 L 213 443 Z M 213 276.011719 " clip-rule="nonzero"/></clipPath><clipPath id="id3"><path d="M 419 276.011719 L 586.78125 276.011719 L 586.78125 443 L 419 443 Z M 419 276.011719 " clip-rule="nonzero"/></clipPath></defs><g clip-path="url(#id1)"><path fill="#f083a2" d="M 175.070312 359.203125 C 175.070312 360.566406 175.035156 361.925781 174.96875 363.285156 C 174.902344 364.644531 174.800781 366.003906 174.667969 367.359375 C 174.535156 368.710938 174.367188 370.0625 174.167969 371.410156 C 173.96875 372.757812 173.734375 374.097656 173.46875 375.433594 C 173.203125 376.769531 172.90625 378.097656 172.574219 379.417969 C 172.242188 380.738281 171.878906 382.050781 171.484375 383.351562 C 171.085938 384.65625 170.660156 385.949219 170.199219 387.230469 C 169.742188 388.511719 169.25 389.78125 168.730469 391.039062 C 168.207031 392.296875 167.65625 393.542969 167.074219 394.773438 C 166.488281 396.003906 165.875 397.21875 165.234375 398.421875 C 164.589844 399.621094 163.921875 400.804688 163.21875 401.972656 C 162.519531 403.140625 161.789062 404.292969 161.03125 405.425781 C 160.273438 406.554688 159.488281 407.667969 158.679688 408.761719 C 157.867188 409.855469 157.027344 410.929688 156.164062 411.980469 C 155.296875 413.035156 154.40625 414.066406 153.492188 415.074219 C 152.578125 416.082031 151.636719 417.070312 150.671875 418.03125 C 149.710938 418.992188 148.722656 419.933594 147.710938 420.847656 C 146.703125 421.761719 145.671875 422.648438 144.617188 423.515625 C 143.5625 424.378906 142.488281 425.214844 141.394531 426.027344 C 140.300781 426.835938 139.183594 427.621094 138.050781 428.378906 C 136.917969 429.132812 135.765625 429.863281 134.597656 430.5625 C 133.429688 431.261719 132.242188 431.933594 131.039062 432.574219 C 129.839844 433.214844 128.621094 433.828125 127.390625 434.410156 C 126.15625 434.992188 124.910156 435.542969 123.652344 436.066406 C 122.390625 436.585938 121.121094 437.078125 119.835938 437.535156 C 118.554688 437.992188 117.257812 438.421875 115.957031 438.816406 C 114.652344 439.210938 113.335938 439.574219 112.015625 439.90625 C 110.691406 440.234375 109.363281 440.535156 108.027344 440.800781 C 106.6875 441.066406 105.347656 441.296875 104 441.5 C 102.648438 441.699219 101.296875 441.863281 99.941406 441.996094 C 98.585938 442.132812 97.226562 442.230469 95.863281 442.296875 C 94.5 442.363281 93.140625 442.398438 91.777344 442.398438 C 90.414062 442.398438 89.050781 442.363281 87.691406 442.296875 C 86.328125 442.230469 84.96875 442.132812 83.613281 441.996094 C 82.253906 441.863281 80.902344 441.699219 79.554688 441.5 C 78.207031 441.296875 76.863281 441.066406 75.527344 440.800781 C 74.191406 440.535156 72.859375 440.234375 71.539062 439.90625 C 70.214844 439.574219 68.902344 439.210938 67.597656 438.816406 C 66.292969 438.421875 65 437.992188 63.714844 437.535156 C 62.433594 437.078125 61.160156 436.585938 59.902344 436.066406 C 58.640625 435.542969 57.394531 434.992188 56.164062 434.410156 C 54.933594 433.828125 53.714844 433.214844 52.511719 432.574219 C 51.308594 431.933594 50.125 431.261719 48.957031 430.5625 C 47.785156 429.863281 46.636719 429.132812 45.5 428.378906 C 44.367188 427.621094 43.253906 426.835938 42.160156 426.027344 C 41.0625 425.214844 39.988281 424.378906 38.9375 423.515625 C 37.882812 422.648438 36.851562 421.761719 35.839844 420.847656 C 34.832031 419.933594 33.84375 418.992188 32.878906 418.03125 C 31.914062 417.070312 30.976562 416.082031 30.058594 415.074219 C 29.144531 414.066406 28.253906 413.035156 27.390625 411.980469 C 26.527344 410.929688 25.6875 409.855469 24.875 408.761719 C 24.0625 407.667969 23.277344 406.554688 22.519531 405.425781 C 21.761719 404.292969 21.035156 403.140625 20.332031 401.972656 C 19.632812 400.804688 18.960938 399.621094 18.320312 398.421875 C 17.675781 397.21875 17.0625 396.003906 16.480469 394.773438 C 15.898438 393.542969 15.34375 392.296875 14.824219 391.039062 C 14.300781 389.78125 13.8125 388.511719 13.351562 387.230469 C 12.894531 385.949219 12.464844 384.65625 12.070312 383.351562 C 11.675781 382.050781 11.3125 380.738281 10.980469 379.417969 C 10.648438 378.097656 10.351562 376.769531 10.085938 375.433594 C 9.816406 374.097656 9.585938 372.757812 9.386719 371.410156 C 9.183594 370.0625 9.019531 368.710938 8.882812 367.359375 C 8.75 366.003906 8.652344 364.644531 8.582031 363.285156 C 8.515625 361.925781 8.484375 360.566406 8.484375 359.203125 C 8.484375 357.839844 8.515625 356.480469 8.582031 355.121094 C 8.652344 353.761719 8.75 352.402344 8.882812 351.046875 C 9.019531 349.695312 9.183594 348.34375 9.386719 346.996094 C 9.585938 345.648438 9.816406 344.308594 10.085938 342.972656 C 10.351562 341.636719 10.648438 340.308594 10.980469 338.988281 C 11.3125 337.667969 11.675781 336.355469 12.070312 335.050781 C 12.464844 333.75 12.894531 332.457031 13.351562 331.175781 C 13.8125 329.894531 14.300781 328.625 14.824219 327.367188 C 15.34375 326.109375 15.898438 324.863281 16.480469 323.632812 C 17.0625 322.402344 17.675781 321.1875 18.320312 319.984375 C 18.960938 318.785156 19.632812 317.601562 20.332031 316.433594 C 21.035156 315.265625 21.761719 314.113281 22.519531 312.980469 C 23.277344 311.851562 24.0625 310.738281 24.875 309.644531 C 25.6875 308.550781 26.527344 307.476562 27.390625 306.425781 C 28.253906 305.371094 29.144531 304.339844 30.058594 303.332031 C 30.976562 302.324219 31.914062 301.335938 32.878906 300.375 C 33.84375 299.410156 34.832031 298.472656 35.839844 297.558594 C 36.851562 296.644531 37.882812 295.753906 38.9375 294.890625 C 39.988281 294.027344 41.0625 293.191406 42.160156 292.378906 C 43.253906 291.570312 44.367188 290.785156 45.5 290.027344 C 46.636719 289.273438 47.785156 288.542969 48.957031 287.84375 C 50.125 287.144531 51.308594 286.472656 52.511719 285.832031 C 53.714844 285.1875 54.933594 284.578125 56.164062 283.996094 C 57.394531 283.414062 58.640625 282.863281 59.902344 282.339844 C 61.160156 281.820312 62.433594 281.328125 63.714844 280.871094 C 65 280.410156 66.292969 279.984375 67.597656 279.589844 C 68.902344 279.195312 70.214844 278.832031 71.539062 278.5 C 72.859375 278.167969 74.191406 277.871094 75.527344 277.605469 C 76.863281 277.339844 78.207031 277.109375 79.554688 276.90625 C 80.902344 276.707031 82.253906 276.542969 83.613281 276.40625 C 84.96875 276.273438 86.328125 276.175781 87.691406 276.109375 C 89.050781 276.039062 90.414062 276.007812 91.777344 276.007812 C 93.140625 276.007812 94.5 276.039062 95.863281 276.109375 C 97.226562 276.175781 98.585938 276.273438 99.941406 276.40625 C 101.296875 276.542969 102.648438 276.707031 104 276.90625 C 105.347656 277.109375 106.6875 277.339844 108.027344 277.605469 C 109.363281 277.871094 110.691406 278.167969 112.015625 278.5 C 113.335938 278.832031 114.652344 279.195312 115.957031 279.589844 C 117.257812 279.984375 118.554688 280.410156 119.835938 280.871094 C 121.121094 281.328125 122.390625 281.820312 123.652344 282.339844 C 124.910156 282.863281 126.15625 283.414062 127.390625 283.996094 C 128.621094 284.578125 129.839844 285.1875 131.039062 285.832031 C 132.242188 286.472656 133.429688 287.144531 134.597656 287.84375 C 135.765625 288.542969 136.917969 289.273438 138.050781 290.027344 C 139.183594 290.785156 140.300781 291.570312 141.394531 292.378906 C 142.488281 293.191406 143.5625 294.027344 144.617188 294.890625 C 145.671875 295.753906 146.703125 296.644531 147.710938 297.558594 C 148.722656 298.472656 149.710938 299.410156 150.671875 300.375 C 151.636719 301.335938 152.578125 302.324219 153.492188 303.332031 C 154.40625 304.339844 155.296875 305.371094 156.164062 306.425781 C 157.027344 307.476562 157.867188 308.550781 158.679688 309.644531 C 159.488281 310.738281 160.273438 311.851562 161.03125 312.980469 C 161.789062 314.113281 162.519531 315.265625 163.21875 316.433594 C 163.921875 317.601562 164.589844 318.785156 165.234375 319.984375 C 165.875 321.1875 166.488281 322.402344 167.074219 323.632812 C 167.65625 324.863281 168.207031 326.109375 168.730469 327.367188 C 169.25 328.625 169.742188 329.894531 170.199219 331.175781 C 170.660156 332.457031 171.085938 333.75 171.484375 335.050781 C 171.878906 336.355469 172.242188 337.667969 172.574219 338.988281 C 172.90625 340.308594 173.203125 341.636719 173.46875 342.972656 C 173.734375 344.308594 173.96875 345.648438 174.167969 346.996094 C 174.367188 348.34375 174.535156 349.695312 174.667969 351.046875 C 174.800781 352.402344 174.902344 353.761719 174.96875 355.121094 C 175.035156 356.480469 175.070312 357.839844 175.070312 359.203125 Z M 175.070312 359.203125 " fill-opacity="1" fill-rule="nonzero"/></g><g clip-path="url(#id2)"><path fill="#c38edc" d="M 379.949219 359.203125 C 379.949219 360.566406 379.917969 361.925781 379.847656 363.285156 C 379.78125 364.644531 379.683594 366.003906 379.546875 367.359375 C 379.414062 368.710938 379.25 370.0625 379.046875 371.410156 C 378.847656 372.757812 378.617188 374.097656 378.347656 375.433594 C 378.082031 376.769531 377.785156 378.097656 377.453125 379.417969 C 377.121094 380.738281 376.757812 382.050781 376.363281 383.351562 C 375.96875 384.65625 375.539062 385.949219 375.082031 387.230469 C 374.621094 388.511719 374.132812 389.78125 373.609375 391.039062 C 373.085938 392.296875 372.535156 393.542969 371.953125 394.773438 C 371.371094 396.003906 370.757812 397.21875 370.113281 398.421875 C 369.472656 399.621094 368.800781 400.804688 368.101562 401.972656 C 367.398438 403.140625 366.667969 404.292969 365.914062 405.425781 C 365.15625 406.554688 364.371094 407.667969 363.558594 408.761719 C 362.746094 409.855469 361.90625 410.929688 361.042969 411.980469 C 360.179688 413.035156 359.289062 414.066406 358.371094 415.074219 C 357.457031 416.082031 356.519531 417.070312 355.554688 418.03125 C 354.589844 418.992188 353.601562 419.933594 352.59375 420.847656 C 351.582031 421.761719 350.550781 422.648438 349.496094 423.515625 C 348.445312 424.378906 347.371094 425.214844 346.273438 426.027344 C 345.179688 426.835938 344.066406 427.621094 342.933594 428.378906 C 341.796875 429.132812 340.648438 429.863281 339.476562 430.5625 C 338.308594 431.261719 337.125 431.933594 335.921875 432.574219 C 334.71875 433.214844 333.5 433.828125 332.269531 434.410156 C 331.035156 434.992188 329.792969 435.542969 328.53125 436.066406 C 327.273438 436.585938 326 437.078125 324.71875 437.535156 C 323.433594 437.992188 322.140625 438.421875 320.835938 438.816406 C 319.53125 439.210938 318.21875 439.574219 316.894531 439.90625 C 315.574219 440.234375 314.242188 440.535156 312.90625 440.800781 C 311.570312 441.066406 310.226562 441.296875 308.878906 441.5 C 307.53125 441.699219 306.175781 441.863281 304.820312 441.996094 C 303.464844 442.132812 302.105469 442.230469 300.742188 442.296875 C 299.382812 442.363281 298.019531 442.398438 296.65625 442.398438 C 295.292969 442.398438 293.929688 442.363281 292.570312 442.296875 C 291.207031 442.230469 289.847656 442.132812 288.492188 441.996094 C 287.136719 441.863281 285.785156 441.699219 284.433594 441.5 C 283.085938 441.296875 281.746094 441.066406 280.40625 440.800781 C 279.070312 440.535156 277.742188 440.234375 276.417969 439.90625 C 275.097656 439.574219 273.78125 439.210938 272.476562 438.816406 C 271.175781 438.421875 269.878906 437.992188 268.597656 437.535156 C 267.3125 437.078125 266.042969 436.585938 264.78125 436.066406 C 263.523438 435.542969 262.277344 434.992188 261.042969 434.410156 C 259.8125 433.828125 258.59375 433.214844 257.394531 432.574219 C 256.191406 431.933594 255.003906 431.261719 253.835938 430.5625 C 252.667969 429.863281 251.515625 429.132812 250.382812 428.378906 C 249.25 427.621094 248.132812 426.835938 247.039062 426.027344 C 245.945312 425.214844 244.871094 424.378906 243.816406 423.515625 C 242.761719 422.648438 241.730469 421.761719 240.722656 420.847656 C 239.710938 419.933594 238.722656 418.992188 237.761719 418.03125 C 236.796875 417.070312 235.855469 416.082031 234.941406 415.074219 C 234.027344 414.066406 233.136719 413.035156 232.269531 411.980469 C 231.40625 410.929688 230.566406 409.855469 229.753906 408.761719 C 228.945312 407.667969 228.160156 406.554688 227.402344 405.425781 C 226.644531 404.292969 225.914062 403.140625 225.214844 401.972656 C 224.511719 400.804688 223.839844 399.621094 223.199219 398.421875 C 222.554688 397.21875 221.945312 396.003906 221.359375 394.773438 C 220.777344 393.542969 220.226562 392.296875 219.703125 391.039062 C 219.183594 389.78125 218.691406 388.511719 218.234375 387.230469 C 217.773438 385.949219 217.347656 384.65625 216.949219 383.351562 C 216.554688 382.050781 216.191406 380.738281 215.859375 379.417969 C 215.527344 378.097656 215.230469 376.769531 214.964844 375.433594 C 214.699219 374.097656 214.464844 372.757812 214.265625 371.410156 C 214.066406 370.0625 213.898438 368.710938 213.765625 367.359375 C 213.632812 366.003906 213.53125 364.644531 213.464844 363.285156 C 213.398438 361.925781 213.363281 360.566406 213.363281 359.203125 C 213.363281 357.839844 213.398438 356.480469 213.464844 355.121094 C 213.53125 353.761719 213.632812 352.402344 213.765625 351.046875 C 213.898438 349.695312 214.066406 348.34375 214.265625 346.996094 C 214.464844 345.648438 214.699219 344.308594 214.964844 342.972656 C 215.230469 341.636719 215.527344 340.308594 215.859375 338.988281 C 216.191406 337.667969 216.554688 336.355469 216.949219 335.050781 C 217.347656 333.75 217.773438 332.457031 218.234375 331.175781 C 218.691406 329.894531 219.183594 328.625 219.703125 327.367188 C 220.226562 326.109375 220.777344 324.863281 221.359375 323.632812 C 221.945312 322.402344 222.554688 321.1875 223.199219 319.984375 C 223.839844 318.785156 224.511719 317.601562 225.214844 316.433594 C 225.914062 315.265625 226.644531 314.113281 227.402344 312.980469 C 228.160156 311.851562 228.945312 310.738281 229.753906 309.644531 C 230.566406 308.550781 231.40625 307.476562 232.269531 306.425781 C 233.136719 305.371094 234.027344 304.339844 234.941406 303.332031 C 235.855469 302.324219 236.796875 301.335938 237.761719 300.375 C 238.722656 299.410156 239.710938 298.472656 240.722656 297.558594 C 241.730469 296.644531 242.761719 295.753906 243.816406 294.890625 C 244.871094 294.027344 245.945312 293.191406 247.039062 292.378906 C 248.132812 291.570312 249.25 290.785156 250.382812 290.027344 C 251.515625 289.273438 252.667969 288.542969 253.835938 287.84375 C 255.003906 287.144531 256.191406 286.472656 257.394531 285.832031 C 258.59375 285.1875 259.8125 284.578125 261.042969 283.996094 C 262.277344 283.414062 263.523438 282.863281 264.78125 282.339844 C 266.042969 281.820312 267.3125 281.328125 268.597656 280.871094 C 269.878906 280.410156 271.175781 279.984375 272.476562 279.589844 C 273.78125 279.195312 275.097656 278.832031 276.417969 278.5 C 277.742188 278.167969 279.070312 277.871094 280.40625 277.605469 C 281.746094 277.339844 283.085938 277.109375 284.433594 276.90625 C 285.785156 276.707031 287.136719 276.542969 288.492188 276.40625 C 289.847656 276.273438 291.207031 276.175781 292.570312 276.109375 C 293.929688 276.039062 295.292969 276.007812 296.65625 276.007812 C 298.019531 276.007812 299.382812 276.039062 300.742188 276.109375 C 302.105469 276.175781 303.464844 276.273438 304.820312 276.40625 C 306.175781 276.542969 307.53125 276.707031 308.878906 276.90625 C 310.226562 277.109375 311.570312 277.339844 312.90625 277.605469 C 314.242188 277.871094 315.574219 278.167969 316.894531 278.5 C 318.21875 278.832031 319.53125 279.195312 320.835938 279.589844 C 322.140625 279.984375 323.433594 280.410156 324.71875 280.871094 C 326 281.328125 327.273438 281.820312 328.53125 282.339844 C 329.792969 282.863281 331.035156 283.414062 332.269531 283.996094 C 333.5 284.578125 334.71875 285.1875 335.921875 285.832031 C 337.125 286.472656 338.308594 287.144531 339.476562 287.84375 C 340.648438 288.542969 341.796875 289.273438 342.933594 290.027344 C 344.066406 290.785156 345.179688 291.570312 346.273438 292.378906 C 347.371094 293.191406 348.445312 294.027344 349.496094 294.890625 C 350.550781 295.753906 351.582031 296.644531 352.59375 297.558594 C 353.601562 298.472656 354.589844 299.410156 355.554688 300.375 C 356.519531 301.335938 357.457031 302.324219 358.371094 303.332031 C 359.289062 304.339844 360.179688 305.371094 361.042969 306.425781 C 361.90625 307.476562 362.746094 308.550781 363.558594 309.644531 C 364.371094 310.738281 365.15625 311.851562 365.914062 312.980469 C 366.667969 314.113281 367.398438 315.265625 368.101562 316.433594 C 368.800781 317.601562 369.472656 318.785156 370.113281 319.984375 C 370.757812 321.1875 371.371094 322.402344 371.953125 323.632812 C 372.535156 324.863281 373.085938 326.109375 373.609375 327.367188 C 374.132812 328.625 374.621094 329.894531 375.082031 331.175781 C 375.539062 332.457031 375.96875 333.75 376.363281 335.050781 C 376.757812 336.355469 377.121094 337.667969 377.453125 338.988281 C 377.785156 340.308594 378.082031 341.636719 378.347656 342.972656 C 378.617188 344.308594 378.847656 345.648438 379.046875 346.996094 C 379.25 348.34375 379.414062 349.695312 379.546875 351.046875 C 379.683594 352.402344 379.78125 353.761719 379.847656 355.121094 C 379.917969 356.480469 379.949219 357.839844 379.949219 359.203125 Z M 379.949219 359.203125 " fill-opacity="1" fill-rule="nonzero"/></g><g clip-path="url(#id3)"><path fill="#7facff" d="M 586.332031 359.226562 C 586.332031 360.589844 586.300781 361.949219 586.234375 363.308594 C 586.164062 364.667969 586.066406 366.027344 585.933594 367.382812 C 585.796875 368.738281 585.632812 370.085938 585.429688 371.433594 C 585.230469 372.78125 585 374.121094 584.730469 375.457031 C 584.464844 376.792969 584.167969 378.121094 583.835938 379.441406 C 583.503906 380.761719 583.140625 382.074219 582.746094 383.378906 C 582.351562 384.679688 581.921875 385.972656 581.464844 387.253906 C 581.003906 388.535156 580.515625 389.804688 579.992188 391.066406 C 579.472656 392.324219 578.917969 393.566406 578.335938 394.796875 C 577.753906 396.027344 577.140625 397.246094 576.496094 398.445312 C 575.855469 399.644531 575.183594 400.832031 574.484375 401.996094 C 573.78125 403.164062 573.054688 404.316406 572.296875 405.449219 C 571.539062 406.578125 570.753906 407.691406 569.941406 408.785156 C 569.128906 409.878906 568.289062 410.953125 567.425781 412.003906 C 566.5625 413.058594 565.671875 414.089844 564.757812 415.097656 C 563.839844 416.105469 562.902344 417.09375 561.9375 418.054688 C 560.972656 419.019531 559.984375 419.957031 558.976562 420.871094 C 557.964844 421.785156 556.933594 422.675781 555.878906 423.539062 C 554.828125 424.402344 553.753906 425.238281 552.65625 426.050781 C 551.5625 426.859375 550.449219 427.644531 549.316406 428.402344 C 548.179688 429.15625 547.03125 429.886719 545.859375 430.585938 C 544.691406 431.285156 543.507812 431.957031 542.304688 432.597656 C 541.101562 433.242188 539.882812 433.851562 538.652344 434.433594 C 537.421875 435.015625 536.175781 435.570312 534.914062 436.089844 C 533.65625 436.609375 532.382812 437.101562 531.101562 437.558594 C 529.816406 438.019531 528.523438 438.445312 527.21875 438.839844 C 525.914062 439.234375 524.601562 439.597656 523.277344 439.929688 C 521.957031 440.261719 520.625 440.558594 519.289062 440.824219 C 517.953125 441.089844 516.609375 441.320312 515.261719 441.523438 C 513.914062 441.722656 512.5625 441.886719 511.203125 442.023438 C 509.847656 442.15625 508.488281 442.253906 507.128906 442.320312 C 505.765625 442.390625 504.402344 442.421875 503.039062 442.421875 C 501.675781 442.421875 500.316406 442.390625 498.953125 442.320312 C 497.589844 442.253906 496.234375 442.15625 494.875 442.023438 C 493.519531 441.886719 492.167969 441.722656 490.820312 441.523438 C 489.46875 441.320312 488.128906 441.089844 486.789062 440.824219 C 485.453125 440.558594 484.125 440.261719 482.800781 439.929688 C 481.480469 439.597656 480.164062 439.234375 478.859375 438.839844 C 477.558594 438.445312 476.261719 438.019531 474.980469 437.558594 C 473.695312 437.101562 472.425781 436.609375 471.164062 436.089844 C 469.90625 435.570312 468.660156 435.015625 467.425781 434.433594 C 466.195312 433.851562 464.976562 433.242188 463.777344 432.597656 C 462.574219 431.957031 461.386719 431.285156 460.21875 430.585938 C 459.050781 429.886719 457.898438 429.15625 456.765625 428.402344 C 455.632812 427.644531 454.515625 426.859375 453.421875 426.050781 C 452.328125 425.238281 451.253906 424.402344 450.199219 423.539062 C 449.144531 422.675781 448.113281 421.785156 447.105469 420.871094 C 446.09375 419.957031 445.105469 419.019531 444.144531 418.054688 C 443.179688 417.09375 442.238281 416.105469 441.324219 415.097656 C 440.410156 414.089844 439.519531 413.058594 438.652344 412.003906 C 437.789062 410.953125 436.949219 409.878906 436.136719 408.785156 C 435.328125 407.691406 434.542969 406.578125 433.785156 405.449219 C 433.027344 404.316406 432.296875 403.164062 431.597656 401.996094 C 430.898438 400.832031 430.226562 399.644531 429.582031 398.445312 C 428.941406 397.246094 428.328125 396.027344 427.742188 394.796875 C 427.160156 393.566406 426.609375 392.324219 426.085938 391.066406 C 425.566406 389.804688 425.074219 388.535156 424.617188 387.253906 C 424.15625 385.972656 423.730469 384.679688 423.332031 383.378906 C 422.9375 382.074219 422.574219 380.761719 422.242188 379.441406 C 421.910156 378.121094 421.613281 376.792969 421.347656 375.457031 C 421.082031 374.121094 420.847656 372.78125 420.648438 371.433594 C 420.449219 370.085938 420.28125 368.738281 420.148438 367.382812 C 420.015625 366.027344 419.914062 364.667969 419.847656 363.308594 C 419.78125 361.949219 419.746094 360.589844 419.746094 359.226562 C 419.746094 357.867188 419.78125 356.503906 419.847656 355.144531 C 419.914062 353.785156 420.015625 352.425781 420.148438 351.074219 C 420.28125 349.71875 420.449219 348.367188 420.648438 347.019531 C 420.847656 345.671875 421.082031 344.332031 421.347656 342.996094 C 421.613281 341.660156 421.910156 340.332031 422.242188 339.011719 C 422.574219 337.691406 422.9375 336.378906 423.332031 335.078125 C 423.730469 333.773438 424.15625 332.480469 424.617188 331.199219 C 425.074219 329.917969 425.566406 328.648438 426.085938 327.390625 C 426.609375 326.132812 427.160156 324.886719 427.742188 323.65625 C 428.328125 322.425781 428.941406 321.210938 429.582031 320.007812 C 430.226562 318.808594 430.898438 317.625 431.597656 316.457031 C 432.296875 315.289062 433.027344 314.136719 433.785156 313.007812 C 434.542969 311.875 435.328125 310.761719 436.136719 309.667969 C 436.949219 308.574219 437.789062 307.5 438.652344 306.449219 C 439.519531 305.394531 440.410156 304.363281 441.324219 303.355469 C 442.238281 302.347656 443.179688 301.363281 444.144531 300.398438 C 445.105469 299.4375 446.09375 298.496094 447.105469 297.582031 C 448.113281 296.667969 449.144531 295.78125 450.199219 294.914062 C 451.253906 294.050781 452.328125 293.214844 453.421875 292.402344 C 454.515625 291.59375 455.632812 290.808594 456.765625 290.050781 C 457.898438 289.296875 459.050781 288.566406 460.21875 287.867188 C 461.386719 287.167969 462.574219 286.496094 463.777344 285.855469 C 464.976562 285.214844 466.195312 284.601562 467.425781 284.019531 C 468.660156 283.4375 469.90625 282.886719 471.164062 282.363281 C 472.425781 281.84375 473.695312 281.351562 474.980469 280.894531 C 476.261719 280.4375 477.558594 280.007812 478.859375 279.613281 C 480.164062 279.21875 481.480469 278.855469 482.800781 278.523438 C 484.125 278.195312 485.453125 277.894531 486.789062 277.628906 C 488.128906 277.363281 489.46875 277.132812 490.820312 276.933594 C 492.167969 276.730469 493.519531 276.566406 494.875 276.433594 C 496.234375 276.296875 497.589844 276.199219 498.953125 276.132812 C 500.316406 276.066406 501.675781 276.03125 503.039062 276.03125 C 504.402344 276.03125 505.765625 276.066406 507.128906 276.132812 C 508.488281 276.199219 509.847656 276.296875 511.203125 276.433594 C 512.5625 276.566406 513.914062 276.730469 515.261719 276.933594 C 516.609375 277.132812 517.953125 277.363281 519.289062 277.628906 C 520.625 277.894531 521.957031 278.195312 523.277344 278.523438 C 524.601562 278.855469 525.914062 279.21875 527.21875 279.613281 C 528.523438 280.007812 529.816406 280.4375 531.101562 280.894531 C 532.382812 281.351562 533.65625 281.84375 534.914062 282.363281 C 536.175781 282.886719 537.421875 283.4375 538.652344 284.019531 C 539.882812 284.601562 541.101562 285.214844 542.304688 285.855469 C 543.507812 286.496094 544.691406 287.167969 545.859375 287.867188 C 547.03125 288.566406 548.179688 289.296875 549.316406 290.050781 C 550.449219 290.808594 551.5625 291.59375 552.65625 292.402344 C 553.753906 293.214844 554.828125 294.050781 555.878906 294.914062 C 556.933594 295.78125 557.964844 296.667969 558.976562 297.582031 C 559.984375 298.496094 560.972656 299.4375 561.9375 300.398438 C 562.902344 301.363281 563.839844 302.347656 564.757812 303.355469 C 565.671875 304.363281 566.5625 305.394531 567.425781 306.449219 C 568.289062 307.5 569.128906 308.574219 569.941406 309.667969 C 570.753906 310.761719 571.539062 311.875 572.296875 313.007812 C 573.054688 314.136719 573.78125 315.289062 574.484375 316.457031 C 575.183594 317.625 575.855469 318.808594 576.496094 320.007812 C 577.140625 321.210938 577.753906 322.425781 578.335938 323.65625 C 578.917969 324.886719 579.472656 326.132812 579.992188 327.390625 C 580.515625 328.648438 581.003906 329.917969 581.464844 331.199219 C 581.921875 332.480469 582.351562 333.773438 582.746094 335.078125 C 583.140625 336.378906 583.503906 337.691406 583.835938 339.011719 C 584.167969 340.332031 584.464844 341.660156 584.730469 342.996094 C 585 344.332031 585.230469 345.671875 585.429688 347.019531 C 585.632812 348.367188 585.796875 349.71875 585.933594 351.074219 C 586.066406 352.425781 586.164062 353.785156 586.234375 355.144531 C 586.300781 356.503906 586.332031 357.867188 586.332031 359.226562 Z M 586.332031 359.226562 " fill-opacity="1" fill-rule="nonzero"/></g><path fill="#ffffff" d="M 96.144531 316.578125 C 96.160156 316.546875 96.175781 316.519531 96.191406 316.492188 C 97.832031 313.578125 101.675781 309.328125 106.910156 309.28125 C 110.21875 309.253906 114.171875 310.875 118.46875 315.847656 C 119.628906 315.785156 120.65625 315.898438 121.554688 316.09375 C 123.589844 316.542969 125.292969 317.675781 125.847656 318.074219 C 126.042969 318.128906 126.25 318.246094 126.453125 318.457031 C 126.507812 318.515625 126.597656 318.613281 126.683594 318.777344 C 126.734375 318.878906 126.886719 319.257812 127.089844 319.886719 C 128.953125 325.539062 137.804688 355.191406 137.804688 355.191406 L 137.863281 355.558594 C 138.085938 378.695312 128.460938 397.539062 117.019531 408.964844 C 109.292969 416.679688 100.710938 421.003906 93.714844 421.148438 C 79.730469 424.425781 64.238281 415.570312 56.765625 406.796875 C 51.355469 400.449219 44.71875 380.664062 45.800781 367.890625 C 46.664062 357.71875 46.203125 348.492188 47.382812 343.0625 C 47.988281 340.269531 49.085938 338.386719 50.703125 337.535156 C 53.722656 335.945312 55.996094 335.601562 57.832031 336.1875 C 58.140625 336.285156 58.4375 336.410156 58.726562 336.5625 C 58.679688 335.273438 58.71875 333.757812 58.972656 332.246094 C 59.445312 329.433594 60.667969 326.679688 63.210938 325.179688 C 65.261719 323.96875 68.664062 322.8125 71.972656 322.996094 C 73.378906 323.074219 74.761719 323.386719 76.035156 324.019531 C 76.707031 316.613281 82.964844 314.136719 86.519531 313.765625 C 90.046875 313.398438 92.859375 314.003906 94.945312 315.523438 C 95.375 315.835938 95.773438 316.1875 96.144531 316.578125 Z M 69.105469 365.308594 C 69.019531 364.898438 68.945312 364.605469 68.914062 364.464844 C 64.628906 354.214844 62.535156 346.582031 60.214844 342.1875 C 59.253906 340.359375 58.324219 339.132812 57.023438 338.71875 C 55.707031 338.300781 54.113281 338.746094 51.945312 339.886719 C 51.300781 340.222656 50.878906 340.890625 50.53125 341.765625 C 50.082031 342.890625 49.796875 344.335938 49.59375 346.035156 C 48.945312 351.519531 49.1875 359.472656 48.453125 368.113281 C 47.425781 380.242188 53.65625 399.046875 58.792969 405.074219 C 65.769531 413.261719 80.195312 421.664062 93.238281 418.527344 L 93.53125 418.492188 C 100.023438 418.414062 107.945312 414.269531 115.136719 407.082031 C 126.136719 396.101562 135.363281 377.992188 135.199219 355.769531 C 134.457031 353.28125 126.335938 326.097656 124.5625 320.714844 C 124.519531 320.582031 124.472656 320.449219 124.433594 320.335938 C 123.914062 319.964844 122.773438 319.085938 120.980469 318.691406 C 118.945312 318.242188 116.09375 318.433594 112.394531 320.535156 C 102.902344 325.921875 91.09375 325.710938 85.65625 324.070312 C 85.378906 323.984375 85.148438 324.160156 84.945312 324.394531 C 84.5 324.902344 84.207031 325.707031 84.078125 326.660156 C 83.332031 332.113281 88.125 341.414062 107.828125 340.457031 C 108.167969 340.4375 108.503906 340.554688 108.761719 340.777344 C 108.761719 340.777344 116.976562 347.703125 111.59375 360.964844 C 111.429688 361.363281 111.082031 361.664062 110.660156 361.757812 C 110.660156 361.757812 89.445312 366.714844 82.578125 389.519531 C 82.367188 390.222656 81.625 390.621094 80.917969 390.410156 C 80.21875 390.199219 79.816406 389.457031 80.027344 388.753906 C 86.597656 366.941406 105.503906 360.464844 109.363281 359.355469 C 112.871094 350.046875 108.644531 344.523438 107.367188 343.136719 C 104.640625 343.246094 102.179688 343.160156 99.960938 342.921875 L 102.644531 356.054688 C 102.957031 357.039062 102.867188 358.195312 102.375 359.394531 C 101.75 360.917969 100.464844 362.546875 98.828125 363.863281 C 96.332031 365.867188 93.046875 367.109375 90.199219 366.4375 C 89.644531 366.308594 89.097656 366.105469 88.578125 365.828125 C 88.335938 367.4375 87.445312 369.054688 86.089844 370.40625 C 83.457031 373.03125 79.152344 374.578125 75.367188 373.085938 C 74.3125 372.667969 73.289062 372.019531 72.347656 371.074219 C 72.328125 371.574219 72.28125 372.058594 72.203125 372.515625 C 71.855469 374.515625 70.875 375.984375 69.214844 376.417969 C 68.328125 376.652344 67.183594 376.59375 65.730469 376 C 63.980469 375.285156 61.648438 373.730469 58.597656 370.953125 C 58.5 370.863281 58.417969 370.761719 58.347656 370.648438 C 58.347656 370.648438 52.542969 360.832031 50.183594 355.960938 C 49.863281 355.300781 50.140625 354.503906 50.800781 354.183594 C 51.460938 353.863281 52.257812 354.140625 52.578125 354.800781 C 54.726562 359.230469 59.757812 367.796875 60.539062 369.121094 C 62.761719 371.132812 64.546875 372.4375 65.976562 373.179688 C 67.105469 373.769531 67.921875 374.007812 68.542969 373.847656 C 68.921875 373.746094 69.136719 373.4375 69.296875 373.0625 C 69.574219 372.421875 69.675781 371.605469 69.703125 370.75 C 69.757812 368.828125 69.398438 366.707031 69.136719 365.464844 C 69.125 365.414062 69.113281 365.359375 69.105469 365.308594 Z M 85.007812 361.214844 C 82.5625 352.359375 77.03125 330.46875 76.242188 327.347656 C 74.625 325.890625 72.507812 325.519531 70.476562 325.664062 C 68.191406 325.820312 65.988281 326.628906 64.566406 327.46875 C 62.714844 328.5625 61.941406 330.636719 61.597656 332.6875 C 61.085938 335.738281 61.570312 338.816406 61.675781 339.429688 C 61.980469 339.890625 62.28125 340.394531 62.570312 340.949219 C 64.917969 345.398438 67.054688 353.132812 71.40625 363.535156 C 71.429688 363.59375 71.453125 363.652344 71.46875 363.714844 C 71.46875 363.714844 71.566406 364.101562 71.699219 364.734375 C 72.785156 368.023438 74.445312 369.863281 76.34375 370.613281 C 79.132812 371.710938 82.273438 370.457031 84.210938 368.523438 C 85.472656 367.265625 86.28125 365.707031 85.890625 364.273438 C 85.742188 363.804688 85.535156 363.105469 85.285156 362.214844 C 85.230469 362.101562 85.175781 361.984375 85.121094 361.867188 C 85.023438 361.652344 84.988281 361.429688 85.007812 361.214844 Z M 96.195312 322.390625 C 95.675781 320.25 94.753906 318.675781 93.378906 317.671875 C 91.753906 316.488281 89.542969 316.125 86.796875 316.410156 C 83.777344 316.722656 78.273438 319.015625 78.660156 326.117188 C 78.6875 326.183594 78.710938 326.253906 78.726562 326.324219 C 78.726562 326.324219 85.304688 352.425781 87.773438 361.238281 C 88.359375 362.351562 89.082031 363.09375 89.910156 363.519531 C 92.1875 364.6875 95.035156 363.5 97.160156 361.792969 C 98.414062 360.78125 99.433594 359.558594 99.910156 358.386719 C 100.140625 357.828125 100.261719 357.292969 100.101562 356.839844 C 100.078125 356.785156 100.066406 356.726562 100.050781 356.667969 L 97.160156 342.515625 C 83.832031 340.058594 80.746094 331.375 81.441406 326.300781 C 81.699219 324.390625 82.503906 322.90625 83.476562 322.128906 C 84.34375 321.433594 85.363281 321.203125 86.425781 321.523438 C 88.714844 322.214844 92.226562 322.625 96.195312 322.390625 Z M 115.359375 316.382812 C 111.902344 312.8125 108.835938 311.695312 106.203125 311.984375 C 103.285156 312.304688 101.019531 314.324219 99.574219 316.203125 C 98.890625 317.085938 98.390625 317.945312 98.101562 318.613281 C 98.007812 318.824219 97.925781 319.082031 97.894531 319.1875 C 98.300781 320.0625 98.628906 321.042969 98.871094 322.140625 C 102.894531 321.625 107.195312 320.425781 111.078125 318.222656 C 112.625 317.347656 114.050781 316.757812 115.359375 316.382812 Z M 126.722656 319.875 C 126.726562 319.859375 126.734375 319.847656 126.738281 319.835938 C 126.742188 319.820312 126.746094 319.808594 126.753906 319.792969 Z M 124.960938 318.15625 C 124.785156 318.222656 124.632812 318.320312 124.511719 318.453125 C 124.386719 318.585938 124.289062 318.757812 124.222656 318.964844 C 124.378906 318.488281 124.691406 318.269531 124.960938 318.15625 Z M 124.960938 318.15625 " fill-opacity="1" fill-rule="evenodd"/><path fill="#ffffff" d="M 281.898438 352.027344 C 281.742188 350.160156 278.699219 313.566406 277.683594 307.585938 L 277.667969 307.433594 C 277.601562 305.554688 278.5625 303.355469 280.023438 301.910156 C 281.082031 300.867188 282.386719 300.226562 283.722656 300.238281 C 285.765625 300.257812 288.167969 301.855469 289.675781 306.875 C 289.691406 306.921875 289.703125 306.972656 289.710938 307.023438 C 289.710938 307.023438 295.496094 343.058594 295.5 344.039062 C 295.503906 345.113281 295.957031 346.203125 296.558594 346.863281 C 296.683594 347 296.816406 347.117188 296.953125 347.203125 C 297.027344 347.25 297.097656 347.304688 297.171875 347.292969 C 297.207031 347.289062 297.230469 347.25 297.261719 347.214844 C 297.351562 347.113281 297.433594 346.980469 297.507812 346.816406 C 297.796875 346.183594 297.980469 345.21875 298.042969 343.851562 C 298.042969 343.839844 298.042969 343.828125 298.042969 343.820312 L 300.917969 303.085938 L 300.921875 303.050781 C 301.113281 301.105469 302.34375 299.304688 303.914062 298.289062 C 305.03125 297.566406 306.3125 297.246094 307.511719 297.464844 C 309.382812 297.804688 311.277344 299.492188 311.765625 303.667969 C 311.769531 303.714844 311.773438 303.761719 311.773438 303.808594 C 311.773438 303.808594 311.617188 339.273438 311.378906 344.867188 L 311.367188 344.976562 C 311.207031 346.128906 311.515625 347.441406 312.042969 348.339844 C 312.1875 348.589844 312.347656 348.804688 312.527344 348.960938 C 312.605469 349.027344 312.679688 349.09375 312.765625 349.105469 C 312.808594 349.113281 312.839844 349.066406 312.886719 349.027344 C 312.96875 348.960938 313.046875 348.871094 313.125 348.765625 C 313.539062 348.207031 313.898438 347.28125 314.210938 345.902344 C 314.214844 345.890625 314.214844 345.882812 314.21875 345.875 C 314.21875 345.875 321.9375 315.339844 321.929688 315.367188 C 322.503906 312.855469 324.109375 310.863281 325.871094 309.898438 C 327.210938 309.164062 328.648438 309.015625 329.882812 309.527344 C 331.699219 310.285156 333.316406 312.695312 333.003906 317.722656 C 333 317.765625 332.996094 317.804688 332.988281 317.84375 C 332.988281 317.84375 330.039062 335.128906 329.355469 339.59375 C 329.351562 339.609375 329.347656 339.628906 329.347656 339.648438 C 329.347656 339.648438 326.210938 355.03125 326.027344 357.425781 C 325.980469 358.019531 326.1875 358.679688 326.542969 359.144531 C 326.707031 359.359375 326.894531 359.542969 327.128906 359.585938 C 327.34375 359.625 327.5625 359.507812 327.804688 359.300781 C 328.109375 359.039062 328.410156 358.652344 328.714844 358.117188 C 331.136719 353.902344 340.226562 343.171875 342.03125 340.421875 C 343.019531 338.921875 344.761719 337.886719 346.375 337.691406 C 347.628906 337.539062 348.804688 337.867188 349.632812 338.726562 C 350.765625 339.902344 351.351562 342.386719 349.683594 346.691406 C 349.671875 346.726562 349.65625 346.761719 349.636719 346.796875 C 349.636719 346.796875 341.636719 362.449219 337.832031 369.296875 C 336.964844 370.855469 336.273438 371.984375 335.917969 372.460938 C 332.527344 378.183594 330.507812 390.074219 326.945312 400.082031 C 324.441406 407.113281 321.152344 413.21875 316.324219 415.972656 C 307.660156 420.917969 289.347656 425.535156 278.289062 412.691406 C 278.273438 412.671875 278.253906 412.652344 278.238281 412.628906 C 278.238281 412.628906 263.363281 392.679688 261.269531 384.890625 C 260.84375 383.851562 255.667969 371.152344 254.550781 367.300781 C 254.546875 367.292969 254.546875 367.285156 254.542969 367.277344 C 254.542969 367.277344 252.039062 357.960938 244.316406 353.03125 C 243.058594 352.351562 242.394531 350.808594 242.640625 349.152344 C 243.109375 346.046875 247.105469 341.972656 256.152344 346.945312 C 256.15625 346.949219 256.160156 346.953125 256.167969 346.953125 C 256.167969 346.953125 262.226562 350.339844 269.324219 363.511719 C 269.324219 363.515625 269.324219 363.515625 269.324219 363.515625 C 269.324219 363.515625 270.265625 365.257812 271.890625 366.800781 C 272.910156 367.773438 274.203125 368.679688 275.726562 368.9375 C 275.824219 368.953125 275.914062 368.980469 276.003906 369.019531 C 276.003906 369.019531 276.011719 369.023438 276.023438 369.027344 C 276.203125 369.101562 277.101562 369.296875 278.101562 368.25 C 279.78125 366.488281 281.441406 362.164062 281.898438 352.027344 Z M 287.425781 307.472656 C 286.859375 305.597656 286.1875 304.308594 285.445312 303.496094 C 284.878906 302.871094 284.289062 302.570312 283.699219 302.566406 C 282.953125 302.554688 282.25 302.980469 281.660156 303.566406 C 280.667969 304.542969 279.972656 306.007812 279.992188 307.289062 C 281.054688 313.730469 284.222656 351.910156 284.222656 351.910156 L 284.226562 352.058594 C 283.835938 360.890625 282.464844 365.640625 281.015625 368.171875 C 279.710938 370.449219 278.265625 371.152344 277.203125 371.355469 C 276.253906 371.535156 275.523438 371.328125 275.199219 371.203125 C 273.261719 370.839844 271.589844 369.726562 270.285156 368.484375 C 268.375 366.667969 267.273438 364.613281 267.273438 364.617188 C 260.605469 352.238281 255.011719 348.972656 255.027344 348.984375 C 251.964844 347.296875 249.632812 346.78125 247.921875 346.992188 C 246.523438 347.167969 245.625 347.859375 245.199219 348.699219 C 244.945312 349.203125 244.859375 349.746094 244.953125 350.21875 C 245.015625 350.554688 245.160156 350.855469 245.441406 350.996094 L 245.539062 351.054688 C 254.023438 356.445312 256.789062 366.671875 256.785156 366.652344 C 257.933594 370.617188 263.449219 384.078125 263.449219 384.078125 L 263.5 384.222656 C 265.410156 391.5625 279.390625 410.289062 280.078125 411.203125 C 290.285156 423.019531 307.183594 418.511719 315.171875 413.953125 C 319.589844 411.429688 322.460938 405.746094 324.753906 399.300781 C 328.378906 389.117188 330.484375 377.03125 333.941406 371.234375 C 333.992188 371.144531 334.058594 371.0625 334.132812 370.992188 C 334.347656 370.785156 334.9375 369.714844 335.796875 368.167969 C 339.457031 361.582031 347.011719 346.820312 347.535156 345.796875 C 348.15625 344.179688 348.429688 342.90625 348.421875 341.917969 C 348.417969 341.191406 348.269531 340.667969 347.957031 340.339844 C 347.628906 340.003906 347.148438 339.9375 346.65625 339.996094 C 345.65625 340.117188 344.585938 340.769531 343.976562 341.695312 C 342.183594 344.429688 333.140625 355.089844 330.734375 359.277344 C 329.398438 361.597656 327.871094 362.085938 326.710938 361.871094 C 325.933594 361.730469 325.230469 361.253906 324.695312 360.558594 C 324.007812 359.660156 323.617188 358.390625 323.703125 357.25 C 323.886719 354.875 326.914062 339.929688 327.058594 339.210938 C 327.726562 334.859375 330.484375 318.679688 330.683594 317.519531 C 330.796875 315.628906 330.625 314.203125 330.230469 313.183594 C 329.929688 312.398438 329.511719 311.894531 328.988281 311.671875 C 328.371094 311.417969 327.660156 311.570312 326.988281 311.9375 C 325.726562 312.628906 324.609375 314.082031 324.199219 315.882812 C 324.195312 315.890625 324.195312 315.898438 324.191406 315.910156 C 324.191406 315.910156 316.476562 346.441406 316.480469 346.417969 C 315.972656 348.640625 315.273438 349.941406 314.59375 350.617188 C 313.890625 351.316406 313.136719 351.507812 312.433594 351.40625 C 311.742188 351.304688 311.046875 350.878906 310.46875 350.15625 C 309.472656 348.898438 308.804688 346.667969 309.054688 344.726562 C 309.285156 339.160156 309.4375 305.664062 309.445312 303.875 C 309.128906 301.246094 308.28125 299.96875 307.09375 299.75 C 306.453125 299.632812 305.777344 299.851562 305.179688 300.238281 C 304.175781 300.890625 303.367188 302.027344 303.238281 303.269531 L 300.367188 343.972656 C 300.269531 346.136719 299.847656 347.515625 299.335938 348.3125 C 298.816406 349.128906 298.164062 349.496094 297.519531 349.589844 C 296.820312 349.699219 296.058594 349.476562 295.367188 348.925781 C 294.199219 347.996094 293.183594 346.019531 293.171875 344.046875 C 293.167969 343.105469 287.726562 309.34375 287.425781 307.472656 Z M 287.425781 307.472656 " fill-opacity="1" fill-rule="evenodd"/><path fill="#ffffff" d="M 474.226562 363.78125 C 470.953125 372.207031 471.558594 382.019531 473.4375 390.761719 C 476.289062 404.015625 482.085938 414.832031 482.085938 414.832031 C 482.324219 415.28125 482.15625 415.839844 481.707031 416.078125 C 481.257812 416.320312 480.699219 416.148438 480.460938 415.703125 C 480.460938 415.703125 474.542969 404.667969 471.636719 391.148438 C 469.683594 382.054688 469.105469 371.851562 472.519531 363.085938 C 472.523438 363.074219 472.53125 363.058594 472.535156 363.042969 C 472.535156 363.042969 473.792969 360.238281 476.765625 359.355469 C 478.015625 358.984375 479.578125 358.941406 481.484375 359.632812 C 481.621094 359.679688 481.746094 359.761719 481.847656 359.867188 C 481.941406 359.96875 482.300781 360.550781 482.808594 361.5 C 484.589844 364.855469 488.730469 373.285156 490.882812 379.429688 C 491.726562 381.839844 492.261719 383.914062 492.28125 385.246094 C 492.292969 386.054688 492.109375 386.652344 491.820312 387.03125 C 491.789062 387.070312 491.757812 387.105469 491.726562 387.136719 C 491.464844 387.46875 490.882812 388.078125 489.902344 388.3125 C 489.195312 388.484375 488.253906 388.46875 487.058594 387.914062 C 484.621094 386.78125 480.785156 383.109375 475.253906 373.03125 C 475.011719 372.585938 475.171875 372.023438 475.621094 371.78125 C 476.066406 371.535156 476.625 371.699219 476.871094 372.144531 C 482.070312 381.625 485.542969 385.179688 487.835938 386.242188 C 488.527344 386.5625 489.0625 386.621094 489.472656 386.523438 C 489.980469 386.402344 490.246094 386.046875 490.316406 385.941406 C 490.339844 385.90625 490.363281 385.875 490.390625 385.847656 C 490.40625 385.792969 490.414062 385.722656 490.421875 385.644531 C 490.453125 385.402344 490.441406 385.109375 490.40625 384.773438 C 490.273438 383.578125 489.804688 381.921875 489.144531 380.039062 C 487.019531 373.980469 482.9375 365.671875 481.179688 362.367188 C 480.9375 361.910156 480.699219 361.492188 480.566406 361.261719 C 479.253906 360.84375 478.171875 360.859375 477.289062 361.121094 C 475.246094 361.726562 474.320312 363.585938 474.226562 363.78125 Z M 474.226562 363.78125 " fill-opacity="1" fill-rule="evenodd"/><path fill="#ffffff" d="M 493.496094 353.488281 C 490.601562 352.417969 488.433594 352.542969 486.808594 353.320312 C 485.265625 354.0625 484.234375 355.367188 483.542969 356.65625 C 482.460938 358.667969 482.1875 360.660156 482.1875 360.660156 C 482.117188 361.164062 481.652344 361.515625 481.148438 361.449219 C 480.644531 361.382812 480.292969 360.917969 480.359375 360.414062 C 480.359375 360.414062 480.667969 358.109375 481.917969 355.785156 C 482.78125 354.179688 484.089844 352.582031 486.011719 351.660156 C 488.042969 350.6875 490.785156 350.445312 494.472656 351.890625 C 494.660156 351.964844 494.824219 352.101562 494.925781 352.277344 C 494.925781 352.277344 496.859375 355.523438 498.019531 359.769531 C 498.152344 360.261719 497.863281 360.769531 497.371094 360.902344 C 496.882812 361.035156 496.375 360.746094 496.242188 360.253906 C 495.34375 356.96875 493.957031 354.320312 493.496094 353.488281 Z M 493.496094 353.488281 " fill-opacity="1" fill-rule="evenodd"/><path fill="#ffffff" d="M 490.125 383.25 C 490.003906 382.753906 490.308594 382.257812 490.804688 382.136719 C 491.300781 382.019531 491.796875 382.324219 491.917969 382.816406 C 491.917969 382.816406 492.722656 386.191406 494.707031 388.480469 C 495.894531 389.851562 497.542969 390.820312 499.769531 390.144531 C 500.167969 390.019531 500.464844 389.707031 500.703125 389.292969 C 501.019531 388.734375 501.226562 388.007812 501.359375 387.167969 C 502.042969 382.835938 500.65625 375.78125 498.945312 372.3125 C 498.722656 371.855469 498.910156 371.304688 499.367188 371.078125 C 499.824219 370.855469 500.375 371.042969 500.601562 371.5 C 502.4375 375.226562 503.914062 382.800781 503.179688 387.457031 C 502.808594 389.8125 501.8125 391.441406 500.308594 391.902344 C 497.246094 392.839844 494.953125 391.574219 493.3125 389.683594 C 491.054688 387.082031 490.125 383.25 490.125 383.25 Z M 490.125 383.25 Z M 490.125 383.25 " fill-opacity="1" fill-rule="evenodd"/><path fill="#ffffff" d="M 500.386719 298.683594 C 499.082031 295.535156 497.5625 294.398438 496.042969 294.566406 C 494.921875 294.691406 493.90625 295.496094 493.15625 296.480469 C 492.390625 297.488281 491.894531 298.707031 491.941406 299.71875 C 491.941406 299.722656 491.941406 299.726562 491.941406 299.730469 L 493.523438 351.761719 C 493.539062 352.269531 493.136719 352.695312 492.628906 352.710938 C 492.121094 352.726562 491.695312 352.328125 491.679688 351.820312 C 491.679688 351.820312 490.097656 299.789062 490.097656 299.800781 C 490.035156 298.425781 490.644531 296.742188 491.6875 295.367188 C 492.75 293.972656 494.25 292.914062 495.839844 292.738281 C 497.921875 292.503906 500.347656 293.707031 502.132812 298.082031 C 502.15625 298.144531 502.175781 298.207031 502.1875 298.273438 C 502.1875 298.273438 505.632812 318.441406 504.820312 333.914062 C 504.855469 334.652344 505.289062 343.886719 505.085938 347.738281 C 505.050781 348.609375 505.140625 349.359375 505.339844 349.929688 C 505.46875 350.300781 505.609375 350.59375 505.84375 350.703125 C 505.972656 350.765625 506.105469 350.664062 506.265625 350.535156 C 506.671875 350.210938 507.070312 349.613281 507.472656 348.722656 C 507.757812 347.46875 510.933594 333.59375 512.316406 328.976562 C 512.539062 327.839844 517.160156 304.46875 517.269531 304.121094 C 518.246094 301 521.917969 299.070312 524.957031 300.1875 C 526.90625 300.90625 528.6875 302.878906 529.171875 306.769531 C 529.179688 306.847656 529.179688 306.925781 529.171875 307 C 529.171875 307 524.648438 341.328125 521.929688 357.171875 C 521.992188 360.53125 523.925781 362.980469 526.269531 365.207031 C 528.851562 367.65625 531.933594 369.835938 534.019531 372.4375 C 534.027344 372.453125 534.039062 372.464844 534.050781 372.480469 C 534.050781 372.480469 537.25 377.039062 535.484375 381.910156 C 535.476562 381.933594 535.46875 381.953125 535.457031 381.976562 C 535.457031 381.976562 529.863281 394.453125 525.765625 408.550781 C 524.761719 411.886719 524.59375 414.941406 520.726562 419.164062 C 519.367188 420.648438 514.832031 423.285156 508.976562 424.71875 C 500.261719 426.859375 488.664062 426.390625 480.542969 415.828125 C 480.230469 415.425781 480.308594 414.847656 480.710938 414.535156 C 481.113281 414.226562 481.695312 414.304688 482.003906 414.707031 C 489.574219 424.554688 500.410156 424.925781 508.539062 422.929688 C 513.910156 421.613281 518.121094 419.285156 519.367188 417.921875 C 522.964844 413.992188 523.066406 411.125 524 408.027344 C 528 394.261719 533.421875 382.019531 533.761719 381.261719 C 535.128906 377.441406 532.765625 373.863281 532.558594 373.5625 C 530.523438 371.035156 527.511719 368.925781 525 366.542969 C 522.269531 363.949219 520.125 361.039062 520.082031 357.113281 L 520.097656 356.949219 C 522.71875 341.703125 527.035156 309.09375 527.328125 306.878906 C 526.945312 304.011719 525.773438 302.453125 524.320312 301.917969 C 522.21875 301.144531 519.703125 302.515625 519.027344 304.671875 C 518.917969 305.027344 514.117188 329.375 514.117188 329.375 L 514.09375 329.460938 C 512.660156 334.222656 509.25 349.222656 509.25 349.222656 L 509.191406 349.390625 C 508.488281 350.980469 507.691406 351.871094 506.992188 352.257812 C 506.304688 352.644531 505.648438 352.640625 505.066406 352.371094 C 504.574219 352.144531 504.117188 351.6875 503.789062 350.996094 C 503.410156 350.203125 503.1875 349.050781 503.246094 347.648438 C 503.453125 343.679688 502.976562 333.960938 502.976562 333.960938 L 502.980469 333.867188 C 503.757812 319.191406 500.644531 300.21875 500.386719 298.683594 Z M 500.386719 298.683594 " fill-opacity="1" fill-rule="evenodd"/><path fill="#ffffff" d="M 503.695312 357.460938 C 509.527344 351.515625 513.484375 352.535156 513.484375 352.535156 C 513.554688 352.550781 513.621094 352.574219 513.683594 352.605469 C 518.582031 354.984375 523.085938 361.429688 523.085938 361.429688 C 523.375 361.847656 523.269531 362.421875 522.851562 362.710938 C 522.433594 363 521.859375 362.898438 521.570312 362.480469 C 521.570312 362.480469 517.496094 356.574219 513 354.324219 C 512.472656 354.273438 509.40625 354.21875 504.902344 358.863281 C 504.828125 358.9375 504.742188 359 504.644531 359.046875 C 504.644531 359.046875 496.957031 362.789062 491.089844 363.230469 C 491.03125 363.234375 490.96875 363.230469 490.910156 363.222656 C 490.890625 363.230469 490.652344 363.308594 490.511719 363.398438 C 490.109375 363.652344 489.695312 364.097656 489.492188 364.660156 C 489.246094 365.359375 489.378906 366.214844 490.214844 367.101562 C 491.292969 368.238281 493.359375 369.355469 496.925781 370.324219 C 497.695312 370.433594 506.082031 371.59375 509.816406 370.183594 C 510.074219 370.085938 510.363281 370.109375 510.601562 370.246094 C 510.839844 370.382812 511.007812 370.621094 511.050781 370.894531 C 511.050781 370.894531 512.363281 378.59375 521.1875 382.730469 C 521.648438 382.945312 521.847656 383.496094 521.632812 383.957031 C 521.414062 384.414062 520.867188 384.613281 520.40625 384.398438 C 512.652344 380.765625 510.175781 374.613281 509.476562 372.203125 C 504.925781 373.300781 496.605469 372.136719 496.605469 372.136719 L 496.496094 372.113281 C 486.398438 369.390625 486.832031 364.96875 488.359375 362.925781 C 488.808594 362.328125 489.378906 361.882812 489.898438 361.632812 C 490.308594 361.441406 490.699219 361.367188 491.023438 361.386719 C 496.140625 360.976562 502.667969 357.953125 503.695312 357.460938 Z M 503.695312 357.460938 " fill-opacity="1" fill-rule="evenodd"/><path fill="#000000" d="M 269.28125 477.695312 L 274.167969 477.738281 L 282.488281 502.234375 L 278.140625 502.289062 L 276.339844 496.996094 L 267.457031 496.996094 L 265.816406 502.242188 L 261.476562 502.234375 Z M 268.75 492.867188 L 274.9375 492.863281 L 271.71875 483.382812 Z M 268.75 492.867188 " fill-opacity="1" fill-rule="evenodd"/><path fill="#000000" d="M 247.960938 478.183594 L 247.929688 477.792969 C 250.027344 477.613281 252.964844 477.234375 255.652344 477.414062 C 257.769531 477.550781 259.738281 478.046875 261.203125 479.058594 C 265.855469 482.257812 264.636719 488.644531 260.453125 491.550781 C 257.9375 493.300781 254.992188 493.488281 252.082031 493.1875 L 252.074219 502.207031 L 247.9375 502.203125 Z M 252.085938 489.035156 C 254.164062 489.316406 256.296875 489.40625 258.089844 488.160156 C 260.011719 486.824219 260.996094 483.929688 258.859375 482.457031 C 257.949219 481.832031 256.699219 481.621094 255.378906 481.535156 C 254.300781 481.464844 253.179688 481.496094 252.09375 481.566406 Z M 252.085938 489.035156 " fill-opacity="1" fill-rule="evenodd"/><path fill="#000000" d="M 284.328125 477.605469 L 284.292969 477.214844 C 286.390625 477.039062 289.332031 476.660156 292.015625 476.835938 C 294.136719 476.976562 296.101562 477.472656 297.570312 478.480469 C 302.222656 481.683594 301 488.070312 296.816406 490.976562 C 294.304688 492.726562 291.355469 492.914062 288.449219 492.609375 L 288.4375 501.632812 L 284.304688 501.628906 Z M 288.453125 488.460938 C 290.527344 488.742188 292.664062 488.832031 294.457031 487.585938 C 296.378906 486.25 297.359375 483.355469 295.222656 481.882812 C 294.3125 481.257812 293.0625 481.046875 291.746094 480.960938 C 290.667969 480.886719 289.542969 480.917969 288.457031 480.988281 Z M 288.453125 488.460938 " fill-opacity="1" fill-rule="evenodd"/><path fill="#000000" d="M 302.664062 482.457031 L 302.660156 482.457031 L 302.574219 477.816406 C 308.386719 477.710938 313.667969 477.820312 320.265625 477.785156 L 320.289062 482.425781 C 315.503906 482.449219 311.417969 482.398438 307.3125 482.410156 C 307.324219 483.90625 307.339844 485.382812 307.359375 486.859375 C 311.796875 486.808594 314.53125 486.890625 320.265625 486.859375 L 320.289062 491.5 C 314.574219 491.53125 311.851562 491.449219 307.429688 491.5 C 307.460938 493.476562 307.496094 495.496094 307.53125 497.601562 C 311.550781 497.589844 315.480469 497.640625 320.265625 497.613281 L 320.289062 502.257812 C 313.71875 502.292969 308.761719 502.179688 302.96875 502.289062 L 302.953125 501.539062 L 302.945312 501.539062 C 302.933594 500.6875 302.921875 499.855469 302.90625 499.035156 L 302.882812 497.648438 C 302.792969 492.273438 302.707031 487.460938 302.664062 482.457031 Z M 302.664062 482.457031 " fill-opacity="1" fill-rule="evenodd"/><path fill="#000000" d="M 324.199219 478.402344 C 324.199219 478.402344 329.929688 478.203125 331.976562 478.316406 C 333.84375 478.417969 335.617188 478.878906 337.082031 479.898438 C 337.199219 479.980469 337.3125 480.078125 337.410156 480.1875 C 341.46875 484.609375 339.035156 490.410156 336.023438 491.96875 C 335.925781 492.027344 335.828125 492.082031 335.730469 492.132812 C 338.023438 495.472656 340.046875 499.542969 341.707031 502.222656 L 336.945312 502.289062 C 334.957031 499.078125 334.058594 496.183594 331.316406 493.175781 C 331.199219 493.179688 331.078125 493.179688 330.960938 493.179688 C 330.058594 493.183594 329.144531 493.117188 328.25 493.074219 C 328.273438 496.195312 328.292969 499.269531 328.335938 502.117188 L 324.496094 502.203125 C 324.386719 494.914062 324.425781 485.683594 324.199219 478.402344 Z M 328.210938 488.433594 C 329.117188 488.476562 330.039062 488.542969 330.949219 488.539062 C 332.136719 488.535156 333.308594 488.429688 334.351562 487.789062 C 334.398438 487.757812 334.449219 487.734375 334.5 487.707031 C 335.503906 487.214844 336.191406 485.304688 334.980469 483.800781 C 333.773438 483.046875 332.273438 482.90625 330.75 482.9375 C 329.878906 482.953125 328.996094 483.039062 328.140625 483.144531 C 328.171875 484.871094 328.195312 486.648438 328.210938 488.433594 Z M 328.210938 488.433594 " fill-opacity="1" fill-rule="evenodd"/><path fill="#000000" d="M 514.183594 493.25 C 514.183594 493.25 516.5 501.136719 523.757812 500.511719 C 523.855469 500.5 523.953125 500.484375 524.050781 500.460938 C 531.683594 498.566406 533.695312 491.164062 531.230469 483.394531 C 530.382812 480.730469 528.183594 478.644531 525.589844 477.664062 C 522.941406 476.660156 519.925781 476.816406 517.570312 478.496094 C 514.742188 480.515625 512.632812 484.984375 514.144531 493.089844 Z M 523.289062 496.785156 C 528.558594 495.382812 529.378906 489.972656 527.648438 484.527344 C 527.148438 482.945312 525.796875 481.75 524.257812 481.167969 C 522.773438 480.609375 521.074219 480.605469 519.75 481.550781 C 517.679688 483.027344 516.730469 486.414062 517.820312 492.320312 C 518.007812 492.949219 519.363281 497.023438 523.289062 496.785156 Z M 523.289062 496.785156 " fill-opacity="1" fill-rule="evenodd"/><path fill="#000000" d="M 470.292969 476.410156 C 470.363281 484.457031 470.222656 491.945312 470.316406 500.546875 L 474.421875 500.503906 C 474.328125 491.902344 474.464844 484.417969 474.394531 476.375 Z M 470.292969 476.410156 " fill-opacity="1" fill-rule="evenodd"/><path fill="#000000" d="M 565.660156 484.296875 C 565.421875 481.421875 563.960938 479.207031 561.582031 477.875 C 557.246094 475.441406 551.8125 478.644531 551.308594 483.453125 C 550.773438 488.542969 554.503906 489.886719 558.480469 490.871094 C 559.324219 491.078125 560.160156 491.28125 560.902344 491.5625 C 561.472656 491.78125 561.992188 492.015625 562.292969 492.453125 C 562.566406 492.84375 562.585938 493.382812 562.449219 494.113281 C 562.140625 495.785156 560.933594 496.691406 559.5625 496.882812 C 557.3125 497.195312 554.679688 495.742188 554.398438 492.742188 L 550.75 493.082031 C 551.609375 502.242188 564.5 503.160156 566.054688 494.78125 C 566.386719 492.996094 566.09375 491.683594 565.5 490.671875 C 564.671875 489.257812 563.121094 488.386719 561.25 487.820312 C 559.894531 487.40625 558.355469 487.136719 557.027344 486.664062 C 556.25 486.386719 555.535156 486.078125 555.167969 485.425781 C 554.941406 485.023438 554.882812 484.503906 554.953125 483.832031 C 555.195312 481.542969 557.722656 479.902344 559.789062 481.0625 C 561.09375 481.796875 561.878906 483.023438 562.011719 484.601562 Z M 565.660156 484.296875 " fill-opacity="1" fill-rule="evenodd"/><path fill="#000000" d="M 493.066406 483.710938 C 492.816406 480.730469 491.304688 478.4375 488.839844 477.054688 C 484.347656 474.53125 478.71875 477.851562 478.195312 482.835938 C 477.640625 488.109375 481.503906 489.503906 485.625 490.519531 C 486.5 490.738281 487.367188 490.945312 488.132812 491.238281 C 488.726562 491.464844 489.261719 491.707031 489.578125 492.160156 C 489.859375 492.566406 489.878906 493.125 489.738281 493.882812 C 489.417969 495.613281 488.164062 496.550781 486.746094 496.75 C 484.414062 497.078125 481.6875 495.570312 481.394531 492.460938 L 477.613281 492.816406 C 478.503906 502.304688 491.863281 503.257812 493.472656 494.574219 C 493.816406 492.726562 493.515625 491.363281 492.902344 490.316406 C 492.039062 488.851562 490.433594 487.949219 488.496094 487.359375 C 487.089844 486.933594 485.492188 486.65625 484.121094 486.164062 C 483.316406 485.875 482.574219 485.554688 482.195312 484.878906 C 481.957031 484.460938 481.894531 483.921875 481.96875 483.230469 C 482.21875 480.855469 484.839844 479.160156 486.980469 480.359375 C 488.335938 481.121094 489.144531 482.390625 489.28125 484.027344 Z M 493.066406 483.710938 " fill-opacity="1" fill-rule="evenodd"/><path fill="#000000" d="M 511.140625 484.007812 C 510.898438 481.078125 509.410156 478.824219 506.992188 477.464844 C 502.578125 474.988281 497.046875 478.25 496.53125 483.144531 C 495.984375 488.328125 499.785156 489.699219 503.832031 490.695312 C 504.691406 490.910156 505.542969 491.113281 506.296875 491.402344 C 506.878906 491.625 507.40625 491.863281 507.714844 492.308594 C 507.992188 492.707031 508.011719 493.253906 507.875 494 C 507.558594 495.699219 506.328125 496.621094 504.933594 496.816406 C 502.644531 497.136719 499.960938 495.65625 499.675781 492.601562 L 495.960938 492.949219 C 496.835938 502.273438 509.960938 503.207031 511.542969 494.679688 C 511.878906 492.863281 511.582031 491.523438 510.980469 490.496094 C 510.132812 489.054688 508.558594 488.167969 506.652344 487.589844 C 505.269531 487.171875 503.703125 486.898438 502.351562 486.414062 C 501.5625 486.132812 500.832031 485.816406 500.460938 485.15625 C 500.230469 484.746094 500.167969 484.214844 500.242188 483.535156 C 500.484375 481.199219 503.058594 479.535156 505.164062 480.714844 C 506.492188 481.460938 507.289062 482.707031 507.425781 484.316406 Z M 511.140625 484.007812 " fill-opacity="1" fill-rule="evenodd"/><path fill="#000000" d="M 446.605469 483.945312 C 446.355469 480.941406 444.832031 478.636719 442.351562 477.242188 C 437.828125 474.707031 432.164062 478.046875 431.636719 483.0625 C 431.078125 488.371094 434.96875 489.773438 439.113281 490.796875 C 439.996094 491.015625 440.871094 491.226562 441.640625 491.519531 C 442.238281 491.75 442.777344 491.992188 443.09375 492.449219 C 443.378906 492.855469 443.398438 493.417969 443.257812 494.183594 C 442.933594 495.925781 441.671875 496.867188 440.246094 497.066406 C 437.898438 497.398438 435.152344 495.882812 434.859375 492.75 L 431.054688 493.105469 C 431.949219 502.65625 445.394531 503.617188 447.015625 494.878906 C 447.359375 493.015625 447.058594 491.648438 446.4375 490.59375 C 445.570312 489.117188 443.957031 488.207031 442.003906 487.617188 C 440.589844 487.1875 438.984375 486.90625 437.601562 486.410156 C 436.792969 486.121094 436.042969 485.800781 435.660156 485.121094 C 435.425781 484.699219 435.363281 484.15625 435.4375 483.460938 C 435.6875 481.070312 438.324219 479.363281 440.480469 480.570312 C 441.84375 481.335938 442.660156 482.613281 442.796875 484.261719 Z M 446.605469 483.945312 " fill-opacity="1" fill-rule="evenodd"/><path fill="#000000" d="M 449.394531 492.414062 C 448.273438 488.289062 449.0625 484.734375 450.757812 482.09375 C 453.28125 478.167969 457.851562 476.304688 461.628906 477.308594 C 464.234375 478 466.589844 479.984375 467.691406 483.75 L 463.539062 484.960938 C 462.964844 483 461.875 481.84375 460.519531 481.484375 C 458.359375 480.910156 455.84375 482.183594 454.398438 484.429688 C 453.269531 486.1875 452.820312 488.574219 453.578125 491.328125 L 453.605469 491.4375 C 454.328125 494.691406 456.214844 496.492188 458.371094 496.566406 C 460.5625 496.640625 462.71875 494.972656 463.820312 491.949219 L 467.886719 493.429688 C 466.003906 498.59375 461.972656 501.011719 458.226562 500.882812 C 454.453125 500.757812 450.664062 498.089844 449.394531 492.414062 Z M 449.394531 492.414062 " fill-opacity="1" fill-rule="evenodd"/><path fill="#000000" d="M 534.226562 477.15625 C 534.226562 477.15625 539.636719 476.964844 541.566406 477.074219 C 543.332031 477.175781 545.003906 477.625 546.386719 478.613281 C 546.5 478.695312 546.601562 478.789062 546.699219 478.894531 C 550.527344 483.191406 548.226562 488.835938 545.386719 490.351562 C 545.296875 490.40625 545.203125 490.460938 545.109375 490.511719 C 547.273438 493.757812 549.183594 497.714844 550.75 500.320312 L 546.257812 500.386719 C 544.382812 497.261719 543.53125 494.449219 540.945312 491.527344 C 540.832031 491.527344 540.71875 491.53125 540.609375 491.53125 C 539.757812 491.53125 538.894531 491.464844 538.050781 491.425781 C 538.070312 494.460938 538.089844 497.453125 538.132812 500.222656 L 534.507812 500.304688 C 534.40625 493.214844 534.441406 484.242188 534.226562 477.15625 Z M 538.015625 486.914062 C 538.871094 486.953125 539.738281 487.019531 540.597656 487.015625 C 541.71875 487.015625 542.824219 486.910156 543.808594 486.289062 C 543.855469 486.257812 543.902344 486.230469 543.949219 486.207031 C 544.898438 485.730469 545.546875 483.871094 544.40625 482.40625 C 543.265625 481.675781 541.847656 481.539062 540.410156 481.566406 C 539.585938 481.585938 538.753906 481.664062 537.949219 481.769531 C 537.976562 483.449219 538 485.175781 538.015625 486.914062 Z M 538.015625 486.914062 " fill-opacity="1" fill-rule="evenodd"/><path fill="#000000" d="M 65.175781 492.753906 C 65.175781 492.753906 67.601562 501.007812 75.199219 500.351562 C 75.304688 500.339844 75.40625 500.324219 75.503906 500.300781 C 83.496094 498.316406 85.597656 490.566406 83.019531 482.433594 C 82.132812 479.644531 79.832031 477.460938 77.117188 476.4375 C 74.34375 475.386719 71.1875 475.550781 68.722656 477.3125 C 65.761719 479.421875 63.554688 484.101562 65.136719 492.582031 Z M 74.710938 496.449219 C 80.226562 494.984375 81.082031 489.320312 79.273438 483.621094 C 78.75 481.964844 77.335938 480.714844 75.722656 480.105469 C 74.167969 479.519531 72.390625 479.519531 71.003906 480.503906 C 68.839844 482.050781 67.84375 485.59375 68.984375 491.78125 C 69.179688 492.4375 70.601562 496.699219 74.710938 496.449219 Z M 74.710938 496.449219 " fill-opacity="1" fill-rule="evenodd"/><path fill="#000000" d="M 86.617188 491.558594 C 85.488281 487.40625 86.285156 483.824219 87.992188 481.171875 C 90.53125 477.214844 95.132812 475.34375 98.933594 476.351562 C 101.554688 477.046875 103.929688 479.042969 105.039062 482.835938 L 100.855469 484.054688 C 100.28125 482.082031 99.183594 480.917969 97.816406 480.554688 C 95.644531 479.976562 93.109375 481.257812 91.65625 483.519531 C 90.519531 485.289062 90.066406 487.691406 90.832031 490.464844 L 90.859375 490.574219 C 91.582031 493.847656 93.484375 495.664062 95.65625 495.738281 C 97.863281 495.8125 100.03125 494.132812 101.140625 491.089844 L 105.234375 492.578125 C 103.335938 497.777344 99.277344 500.210938 95.507812 500.085938 C 91.710938 499.957031 87.898438 497.269531 86.617188 491.558594 Z M 86.617188 491.558594 " fill-opacity="1" fill-rule="evenodd"/><path fill="#000000" d="M 112.144531 486.53125 C 116.179688 482.871094 117.628906 480.265625 121.78125 476.179688 L 128.199219 476.234375 C 125.527344 478.867188 121.535156 483.324219 119.308594 485.804688 C 122.148438 490.363281 125.839844 496.320312 128.292969 500.46875 L 122.3125 500.46875 C 120.054688 496.644531 118.789062 493.660156 116 489.265625 C 114.882812 490.339844 113.675781 491.386719 112.320312 492.410156 C 112.398438 495.011719 112.46875 497.613281 112.488281 500.214844 L 107.84375 500.25 C 107.78125 492.195312 107.230469 484.136719 107.464844 476.082031 L 112.109375 476.21875 C 112.007812 479.65625 112.054688 483.09375 112.144531 486.53125 Z M 112.144531 486.53125 " fill-opacity="1" fill-rule="evenodd"/><path fill="#000000" d="M 47.753906 476.203125 C 47.753906 476.203125 53.726562 476.003906 55.855469 476.117188 C 57.804688 476.21875 59.648438 476.679688 61.175781 477.699219 C 61.300781 477.78125 61.414062 477.878906 61.519531 477.988281 C 65.746094 482.40625 63.210938 488.210938 60.074219 489.769531 C 59.972656 489.824219 59.871094 489.882812 59.769531 489.933594 C 62.15625 493.273438 64.265625 497.34375 65.996094 500.023438 L 61.035156 500.089844 C 58.964844 496.875 58.027344 493.984375 55.171875 490.976562 C 55.046875 490.980469 54.921875 490.980469 54.796875 490.980469 C 53.859375 490.984375 52.90625 490.914062 51.972656 490.875 C 51.996094 493.996094 52.019531 497.070312 52.0625 499.917969 L 48.0625 500.003906 C 47.949219 492.714844 47.988281 483.484375 47.753906 476.203125 Z M 51.933594 486.234375 C 52.878906 486.277344 53.839844 486.34375 54.789062 486.339844 C 56.023438 486.335938 57.242188 486.230469 58.332031 485.589844 C 58.382812 485.558594 58.433594 485.53125 58.484375 485.507812 C 59.535156 485.015625 60.25 483.105469 58.988281 481.601562 C 57.730469 480.847656 56.164062 480.707031 54.578125 480.738281 C 53.667969 480.753906 52.753906 480.835938 51.863281 480.941406 C 51.894531 482.671875 51.917969 484.445312 51.933594 486.234375 Z M 51.933594 486.234375 " fill-opacity="1" fill-rule="evenodd"/></svg>